Coordinates
version=1
nRows=22
nColumns=32
inDegrees=yes

Units are S.I. units (second, meters, Newtons, ...)
If the header above contains a line with 'inDegrees', this indicates whether rotational values are in degrees (yes) or radians (no).

endheader
time	pelvis_tilt	pelvis_list	pelvis_rotation	pelvis_tx	pelvis_ty	pelvis_tz	hip_flexion_r	hip_adduction_r	hip_rotation_r	knee_angle_r	knee_adduction_r	med_cond_adduction_r	lat_cond_adduction_r	patella_r_constrained_knee_angle	hip_flexion_l	hip_adduction_l	hip_rotation_l	knee_angle_l	knee_adduction_l	med_cond_adduction_l	lat_cond_adduction_l	patella_l_constrained_knee_angle	lumbar_extension	lumbar_bending	lumbar_rotation	ankle_angle_r	subtalar_angle_r	mtp_angle_r	ankle_angle_l	subtalar_angle_l	mtp_angle_l
      2.54000000	    -62.20640230	    -10.89580806	     -9.53194039	      0.33312371	      0.68718736	     -0.35146270	     83.34339985	     14.84246743	     -9.85430496	    -35.96242734	     -6.84150615	     -0.00000000	     -0.00000000	     -0.62766276	     96.54000001	    -15.71850357	     11.23865283	    -79.06962181	      6.35916482	     -0.00000000	     -0.00000000	     -1.38002524	     70.46177781	     25.92686257	    -10.94713965	     10.64795563	     13.31455341	      0.00000000	      1.26700337	      4.95538066	      0.00000000
      2.54500000	    -62.27285341	    -10.65444840	     -9.91403315	      0.33923779	      0.68808322	     -0.35138596	     82.72002666	     15.16829596	     -9.85716538	    -35.55898132	     -6.94817685	     -0.00000000	     -0.00000000	     -0.62062130	     97.16579330	    -15.84275684	     11.19146259	    -77.76138166	      6.69015386	      0.00000000	      0.00000000	     -1.35719214	     70.34290122	     26.44158685	    -10.39183844	     10.75042440	     13.66310610	     -0.00000000	      1.60116873	      4.56554068	     -0.00000000
      2.55000000	    -62.34816464	    -10.39023983	    -10.28733169	      0.34535490	      0.68885138	     -0.35136758	     82.12474964	     15.45643092	     -9.87407506	    -35.22007356	     -7.04283332	      0.00000000	      0.00000000	     -0.61470625	     97.77420399	    -15.95256168	     11.09909643	    -76.39788133	      6.97083311	     -0.00000000	     -0.00000000	     -1.33339457	     70.23421398	     26.94727460	     -9.83337977	     10.91549514	     14.05232985	      0.00000000	      1.90118203	      4.14650960	     -0.00000000
      2.55500000	    -62.43314123	    -10.13890469	    -10.66090023	      0.35150865	      0.68950867	     -0.35135341	     81.54710766	     15.73442235	     -9.95945034	    -34.91998152	     -7.15191396	      0.00000000	      0.00000000	     -0.60946865	     98.37147986	    -16.06469381	     11.01804785	    -74.97676815	      7.21277180	      0.00000000	      0.00000000	     -1.30859147	     70.13118428	     27.46111261	     -9.32012992	     11.01325027	     14.42731397	     -0.00000000	      2.20323140	      3.81997425	     -0.00000000
      2.56000000	    -62.50116642	     -9.92055833	    -11.05337820	      0.35761026	      0.69004353	     -0.35136449	     80.98263412	     16.02366498	    -10.09006707	    -34.68373799	     -7.25873848	     -0.00000000	     -0.00000000	     -0.60534542	     98.95282263	    -16.19890272	     10.95022191	    -73.53074089	      7.40348264	     -0.00000000	     -0.00000000	     -1.28335353	     69.99269803	     28.04177092	     -8.81887544	     11.13046613	     14.76596319	      0.00000000	      2.50731856	      3.50095782	     -0.00000000
      2.56500000	    -62.61810497	     -9.61902190	    -11.39527384	      0.36379319	      0.69043583	     -0.35142905	     80.47129192	     16.22812363	    -10.14745540	    -34.49397713	     -7.34936341	     -0.00000000	     -0.00000000	     -0.60203347	     99.51618449	    -16.25679077	     10.75571958	    -71.99499000	      7.49425471	      0.00000000	      0.00000000	     -1.25654962	     69.91910517	     28.49293312	     -8.28935640	     11.35485624	     15.04256555	      0.00000000	      2.74391756	      3.21820064	      0.00000000
      2.57000000	    -62.70961504	     -9.38959284	    -11.77512535	      0.36990727	      0.69071824	     -0.35146837	     79.95704770	     16.48001857	    -10.23408800	    -34.34502020	     -7.40453925	     -0.00000000	     -0.00000000	     -0.59943368	    100.08759000	    -16.36416935	     10.60635910	    -70.47105961	      7.52363466	      0.00000000	      0.00000000	     -1.22995202	     69.80031585	     29.06297466	     -7.81996757	     11.50217950	     15.41397228	     -0.00000000	      3.01257107	      2.93767153	     -0.00000000
      2.57500000	    -62.82304667	     -9.16602202	    -12.12236040	      0.37603559	      0.69087292	     -0.35156179	     79.47578466	     16.70598327	    -10.30513171	    -34.22228148	     -7.48267027	      0.00000000	      0.00000000	     -0.59729149	    100.64705326	    -16.42192898	     10.44162472	    -68.87828576	      7.47845276	     -0.00000000	     -0.00000000	     -1.20215287	     69.72134245	     29.58511599	     -7.36329388	     11.67395675	     15.51552616	     -0.00000000	      3.19972030	      2.77729235	     -0.00000000
      2.58000000	    -63.14680517	     -8.55713809	    -12.30707854	      0.38218954	      0.69079659	     -0.35175395	     79.25122622	     16.60641554	    -10.04034530	    -34.21222210	     -7.47003805	     -0.00000000	     -0.00000000	     -0.59711592	    101.24699718	    -16.24979917	      9.68175406	    -67.09039796	      7.12572829	     -0.00000000	     -0.00000000	     -1.17094834	     69.95958931	     29.57119348	     -6.72238811	     12.04523770	     15.93005870	     -0.00000000	      3.29743003	      2.45666924	      0.00000000
      2.58500000	    -63.06950864	     -8.71375629	    -12.80715323	      0.38817750	      0.69076982	     -0.35178818	     78.61618460	     17.13201692	    -10.30130980	    -34.14916265	     -7.57284743	     -0.00000000	     -0.00000000	     -0.59601533	    101.74687750	    -16.49129530	     10.01368417	    -65.59827153	      7.10955252	      0.00000000	      0.00000000	     -1.14490582	     69.50561498	     30.62666875	     -6.49587512	     12.11680863	     15.80714356	      0.00000000	      3.58783607	      2.35956132	     -0.00000000
      2.59000000	    -63.29518195	     -8.31296088	    -13.00004417	      0.39425670	      0.69047862	     -0.35199493	     78.34301263	     17.12478586	    -10.14016885	    -34.22811746	     -7.58723704	     -0.00000000	     -0.00000000	     -0.59739335	    102.29004781	    -16.33344749	      9.45786624	    -63.82023841	      6.65732251	     -0.00000000	     -0.00000000	     -1.11387329	     69.56604170	     30.77974871	     -5.98694041	     12.65585298	     15.90466330	      0.00000000	      3.67663001	      2.30496173	      0.00000000
      2.59500000	    -63.43742748	     -8.15701659	    -13.33380169	      0.40016181	      0.69012544	     -0.35224490	     77.99808180	     17.35008393	    -10.02790459	    -34.29086611	     -7.58885474	      0.00000000	      0.00000000	     -0.59848852	    102.83900068	    -16.29480976	      9.20074988	    -62.09781930	      6.17610055	     -0.00000000	     -0.00000000	     -1.08381141	     69.40950109	     31.38502496	     -5.63824971	     12.92461616	     15.90724370	      0.00000000	      3.80806568	      2.22196968	      0.00000000
      2.60000000	    -63.58032743	     -7.99522632	    -13.68379955	      0.40610651	      0.68968488	     -0.35237283	     77.66105699	     17.60604038	     -9.88038123	    -34.38512179	     -7.59375068	      0.00000000	     -0.00000000	     -0.60013359	    103.37048678	    -16.29026468	      8.92098742	    -60.33790528	      5.63894620	     -0.00000000	     -0.00000000	     -1.05309511	     69.28553649	     31.96150675	     -5.23775396	     13.04041535	     15.90395899	     -0.00000000	      3.96435273	      2.28077705	      0.00000000
      2.60500000	    -63.79158575	     -7.72321836	    -13.92290197	      0.41201654	      0.68912360	     -0.35268225	     77.43042130	     17.69712936	     -9.61975606	    -34.53634150	     -7.56592544	      0.00000000	      0.00000000	     -0.60277287	    103.88905430	    -16.11241505	      8.39917912	    -58.47015720	      4.85580809	     -0.00000000	     -0.00000000	     -1.02049676	     69.24752362	     32.32624790	     -4.82427104	     13.40349058	     15.94962614	      0.00000000	      4.04996095	      2.21783920	      0.00000000
      2.61000000	    -64.01381036	     -7.46004217	    -14.14575745	      0.41788129	      0.68847084	     -0.35302178	     77.24027553	     17.77641061	     -9.32889799	    -34.75131225	     -7.52991441	      0.00000000	      0.00000000	     -0.60652482	    104.39511528	    -15.89698842	      7.85677170	    -56.55957030	      3.98244419	     -0.00000000	     -0.00000000	     -0.98715073	     69.21571466	     32.67489326	     -4.44336071	     13.73652668	     15.85664051	     -0.00000000	      4.11756386	      2.28478470	      0.00000000
      2.61500000	    -64.27422188	     -7.15327276	    -14.31025072	      0.42372518	      0.68772829	     -0.35344875	     77.10791565	     17.77687710	     -8.99436749	    -34.99226867	     -7.47509771	      0.00000000	      0.00000000	     -0.61073030	    104.88420468	    -15.59632717	      7.24490496	    -54.56648606	      2.99749639	     -0.00000000	     -0.00000000	     -0.95236484	     69.24641970	     32.91635697	     -4.03186913	     14.18756334	     15.78949846	      0.00000000	      4.16187424	      2.24469204	      0.00000000
      2.62000000	    -64.54664832	     -6.85447989	    -14.47077385	      0.42954810	      0.68691921	     -0.35389980	     77.00517591	     17.77384869	     -8.63205233	    -35.26896092	     -7.40299017	      0.00000000	      0.00000000	     -0.61555949	    105.35121625	    -15.27456552	      6.67106972	    -52.51062123	      1.97509624	      0.00000000	      0.00000000	     -0.91648323	     69.27619027	     33.15307178	     -3.65159794	     14.57279585	     15.63410163	      0.00000000	      4.20212561	      2.22739256	      0.00000000
      2.62500000	    -64.82552970	     -6.58665458	    -14.62559907	      0.43535688	      0.68608336	     -0.35442461	     76.90572856	     17.76953777	     -8.27778377	    -35.54146456	     -7.32447196	     -0.00000000	     -0.00000000	     -0.62031558	    105.79817019	    -14.92308391	      6.13137031	    -50.42140702	      0.88739347	     -0.00000000	     -0.00000000	     -0.88001957	     69.32289281	     33.43148290	     -3.30622542	     14.87249896	     15.59602983	      0.00000000	      4.20397336	      2.19307153	     -0.00000000
      2.63000000	    -65.12536250	     -6.28334927	    -14.73695499	      0.44117349	      0.68517541	     -0.35501523	     76.85976930	     17.69489689	     -7.96843461	    -35.88092137	     -7.25210461	     -0.00000000	     -0.00000000	     -0.62624022	    106.20597217	    -14.51911865	      5.61960994	    -48.26245926	     -0.20063140	     -0.00000000	     -0.00000000	     -0.84233882	     69.40237131	     33.62195304	     -2.96907621	     15.25622705	     15.59307288	      0.00000000	      4.18250489	      2.16769965	     -0.00000000
      2.63500000	    -65.42566268	     -5.99648339	    -14.84262971	      0.44700732	      0.68425875	     -0.35563616	     76.81318501	     17.61245615	     -7.66190979	    -36.22674167	     -7.16554834	     -0.00000000	     -0.00000000	     -0.63227592	    106.57302186	    -14.10463779	      5.19351743	    -46.06734243	     -1.26981879	      0.00000000	      0.00000000	     -0.80402680	     69.48890136	     33.81233316	     -2.64838903	     15.54082038	     15.60080496	      0.00000000	      4.14100540	      2.05663607	     -0.00000000
      2.64000000	    -65.75600148	     -5.66021659	    -14.92009489	      0.45291863	      0.68330785	     -0.35629696	     76.79630825	     17.47380004	     -7.33453934	    -36.58476341	     -7.06917797	     -0.00000000	     -0.00000000	     -0.63852458	    106.90099391	    -13.66636494	      4.86610345	    -43.84273660	     -2.26026687	     -0.00000000	     -0.00000000	     -0.76520011	     69.67104161	     33.89807870	     -2.29830603	     15.95399965	     15.61800620	     -0.00000000	      4.06361553	      1.79900266	     -0.00000000
      2.64500000	    -66.02233781	     -5.51572723	    -15.01828694	      0.45887396	      0.68237650	     -0.35697871	     76.69717002	     17.42612233	     -7.23149462	    -36.93720185	     -7.03704768	     -0.00000000	     -0.00000000	     -0.64467579	    107.17799676	    -13.24063307	      4.76109996	    -41.66767990	     -3.23084958	      0.00000000	      0.00000000	     -0.72723821	     69.74149571	     34.20528655	     -2.07920635	     16.09383540	     15.54017628	      0.00000000	      4.04825780	      1.46798542	      0.00000000
